<?xml version="1.0" encoding="utf-8"?>
<!-- Generator: Adobe Illustrator 19.0.0, SVG Export Plug-In . SVG Version: 6.00 Build 0)  -->
<svg version="1.1" id="Layer_1" xmlns="http://www.w3.org/2000/svg" xmlns:xlink="http://www.w3.org/1999/xlink" x="0px" y="0px"
	 viewBox="28 -156 1080 1080" style="enable-background:new 28 -156 1080 1080;" xml:space="preserve">
<style type="text/css">
	.st0{fill:#FFFFFF;}
	.st1{opacity:0.4;}
	.st2{fill-opacity:0.33;stroke:#000000;stroke-linecap:round;stroke-linejoin:round;stroke-miterlimit:10;stroke-opacity:0;}
	.st3{fill:#FFD000;stroke:#000000;stroke-linecap:round;stroke-linejoin:round;stroke-miterlimit:10;stroke-opacity:0;}
	.st4{fill:#D09B15;stroke:#000000;stroke-linecap:round;stroke-linejoin:round;stroke-miterlimit:10;stroke-opacity:0;}
	.st5{fill:#D09B15;stroke:#000000;stroke-miterlimit:10;stroke-opacity:0;}
	.st6{opacity:0.3;}
	.st7{fill:url(#Path_1_1_3_);stroke:#000000;stroke-linecap:round;stroke-linejoin:round;stroke-miterlimit:10;stroke-opacity:0;}
</style>
<g id="document">
	<rect id="Shape_1_1" x="-2344" y="-223.5" vector-effect="non-scaling-stroke" class="st0" width="1080" height="1080"/>
</g>
<g>
	<g>
		<g id="stage">
			<g id="layer1_1" class="st1">
				<path id="Path_2_1" class="st2" d="M944,387.1c0,203.6-172,368.6-384.1,368.6c-122.1,0-231-54.7-301.3-139.9l56.2,1.3
					c62.6,62.1,150.4,100.7,247.6,100.7c190.3,0,344.6-148,344.6-330.6c0-61.7-17.6-119.5-48.3-168.9c0.5,2.2,0.7,3.3,0.6,3.1
					c-1.1-1.5-133.7,361.4-131.9,362.1c1.8,0.7-56.8,0-55.6,0c0.8,0-97.6-213.2-161.7-351.9c-0.1,26.9-0.3,147.8-4.3,251.4
					C505.1,599.4,375,592.1,375,592.1l-69.7,0.3l-66.8-3.2c-39.7-58-62.8-127.4-62.8-202c0-203.6,172-368.6,384.1-368.6
					c91.7,0,175.9,30.8,241.9,82.3L788,137l-0.1,0.2c-60.7-51.2-138.4-80.6-225.5-80.6c-190.3,0-344.6,148-344.6,330.6
					c0,58.7,16,113.9,43.9,161.7l113.3-0.1c88.5,4.6,77.2-74.2,77.2-74.2l5.1-356.6c-0.8-1.7-1.2-2.6-1.2-2.6s0.4,0,1.2,0l0-2.1
					c0,0,0.3,0.7,1,2.1c10.3-0.2,52.3-1.1,52.3-0.6c0,0.7,194.7,397,194.3,398.2c-0.3,0.9,85.8-243.9,119.6-340.1
					c-0.1-0.2,0.4-0.4,0.2-0.5l15.5-36.8C904.7,201.2,944,289.8,944,387.1L944,387.1z"/>
			</g>
			<g id="Base_e_sombra_1">
				<path id="Path_1_1" class="st3" d="M960.2,380.9c0,203.6-172,368.6-384.1,368.6c-122.1,0-231-54.7-301.3-139.9l56.2,1.3
					c62.6,62.1,150.4,100.7,247.6,100.7c190.3,0,344.6-148,344.6-330.6c0-61.7-17.6-119.5-48.3-168.9c0.5,2.2,0.7,3.3,0.6,3.1
					c-1.1-1.5-133.7,361.4-131.9,362.1c1.8,0.7-56.8,0-55.6,0c0.8,0-97.6-213.2-161.7-351.9c-0.1,26.9-0.3,147.8-4.3,251.4
					c-0.7,116.4-130.7,109.1-130.7,109.1l-69.7,0.3l-66.8-3.2c-39.7-58-62.8-127.4-62.8-202c0-203.6,172-368.6,384.1-368.6
					c91.7,0,175.9,30.8,241.9,82.3l-13.8,36.2l-0.1,0.2c-60.7-51.2-138.4-80.6-225.5-80.6c-190.3,0-344.6,148-344.6,330.6
					c0,58.7,16,113.9,43.9,161.7l113.3-0.1c88.5,4.6,77.2-74.2,77.2-74.2l5.1-356.6c-0.8-1.7-1.2-2.6-1.2-2.6s0.4,0,1.2,0l0-2.1
					c0,0,0.3,0.7,1,2.1c10.3-0.2,52.3-1.1,52.3-0.6c0,0.7,194.7,397,194.3,398.2c-0.3,0.9,85.8-243.9,119.6-340.1
					c-0.1-0.2-0.3-0.3-0.4-0.5l16.2-36.9C920.9,195,960.2,283.5,960.2,380.9L960.2,380.9z"/>
			</g>
			<g id="Jota_1">
				<path id="Path_1_1_1_" class="st4" d="M520.7,269.4"/>
				<path id="Path_2" class="st4" d="M540.1,210"/>
				<path id="Path_2_1_" class="st4" d="M563.6,380.3"/>
				<path id="CompoundPath_1" class="st5" d="M528.7,228.6c0.1-4,0.1-6.1,0.1-6.1v6.4C528.8,228.8,528.7,228.7,528.7,228.6
					L528.7,228.6z M521.9,476.7c-0.7,116.4-130.7,109.1-130.7,109.1l-69.7,0.3l-66.8-3.2c-39.7-58-62.8-127.4-62.8-202
					c0-203.6,172-368.6,384.1-368.6c91.7,0,175.9,30.8,241.9,82.3l-13.8,36.2l-0.1,0.2c-60.7-51.2-138.4-80.6-225.5-80.6
					c-190.3,0-344.6,148-344.6,330.6c0,58.7,16,113.9,43.9,161.7l113.3-0.1c88.5,4.6,77.2-74.2,77.2-74.2l5.1-356.6
					c-0.8-1.7-1.2-2.6-1.2-2.6s0.4,0,1.2,0l0-2.1c0,0,0.3,0.7,1,2.1c20.4,46.1,38.3,85.7,54,119.7
					C528.1,257.8,525.4,385.5,521.9,476.7L521.9,476.7z"/>
			</g>
			<g id="Efeito_1" class="st6">
				
					<radialGradient id="Path_1_1_3_" cx="579.2004" cy="418.6666" r="392.1595" gradientTransform="matrix(1 0 0 -1 0 768)" gradientUnits="userSpaceOnUse">
					<stop  offset="0" style="stop-color:#D8D8D8"/>
					<stop  offset="0.2688" style="stop-color:#FFFFFF"/>
					<stop  offset="0.426" style="stop-color:#585243"/>
					<stop  offset="0.54" style="stop-color:#000000"/>
					<stop  offset="0.6849" style="stop-color:#FFFFFF"/>
					<stop  offset="1" style="stop-color:#000000"/>
				</radialGradient>
				<path id="Path_1_1_2_" class="st7" d="M960.2,380.9c0,203.6-172,368.6-384.1,368.6c-122.1,0-231-54.7-301.3-139.9l56.2,1.3
					c62.6,62.1,150.4,100.7,247.6,100.7c190.3,0,344.6-148,344.6-330.6c0-61.7-17.6-119.5-48.3-168.9c0.5,2.2,0.7,3.3,0.6,3.1
					c-1.1-1.5-133.7,361.4-131.9,362.1c1.8,0.7-56.8,0-55.6,0c0.8,0-97.6-213.2-161.7-351.9c-0.1,26.9-0.3,147.8-4.3,251.4
					c-0.7,116.4-130.7,109.1-130.7,109.1l-69.7,0.3l-66.8-3.2c-39.7-58-62.8-127.4-62.8-202c0-203.6,172-368.6,384.1-368.6
					c91.7,0,175.9,30.8,241.9,82.3l-13.8,36.2l-0.1,0.2c-60.7-51.2-138.4-80.6-225.5-80.6c-190.3,0-344.6,148-344.6,330.6
					c0,58.7,16,113.9,43.9,161.7l113.3-0.1c88.5,4.6,77.2-74.2,77.2-74.2l5.1-356.6c-0.8-1.7-1.2-2.6-1.2-2.6s0.4,0,1.2,0l0-2.1
					c0,0,0.3,0.7,1,2.1c10.3-0.2,52.3-1.1,52.3-0.6c0,0.7,194.7,397,194.3,398.2c-0.3,0.9,85.8-243.9,119.6-340.1
					c-0.1-0.2-0.3-0.3-0.4-0.5l16.2-36.9C920.9,195,960.2,283.5,960.2,380.9L960.2,380.9z"/>
			</g>
		</g>
	</g>
</g>
</svg>
